<svg xmlns="http://www.w3.org/2000/svg" version="1.1" xmlns:xlink="http://www.w3.org/1999/xlink" xmlns:svgjs="http://svgjs.dev/svgjs" width="100%" height="100%" viewBox="0 0 1000 600"><rect width="1000" height="600" x="0" y="0" fill="#eb2188"/><g><rect width="333.3333333333333" height="333.3333333333333" y="253.92489990688298" fill="#080a52" transform="matrix(0.5394844578620973,0,0,0.5394844578620975,0,73.0973781597986)" x="231.70263671875"/><path d="M361.07763434023315 431.9606129061802L361.07763434023315 418.24037522632744L440.3633462255427 418.24037522632744L440.3633462255427 431.9606129061802L361.07763434023315 431.9606129061802ZM362.8038247641625 359.31180558184053L362.8038247641625 495.5915633606817L346.94073000632847 495.5915633606817L346.94073000632847 345.5915679019878L449.79786974943283 345.5915679019878L449.79786974943283 359.31180558184053L362.8038247641625 359.31180558184053Z " fill="#eb2188" transform="matrix(0.5394844578620973,0,0,0.5394844578620975,0,73.0973781597986)"/><path d="M661.6177195946768 434.9556437760338L661.6177195946768 422.0977037296276L735.920436045059 422.0977037296276L735.920436045059 434.9556437760338L661.6177195946768 434.9556437760338ZM663.2354213792571 366.8727117732624L663.2354213792571 494.58747852487664L648.3692998071649 494.58747852487664L648.3692998071649 354.0147717268561L744.7620130400933 354.0147717268561L744.7620130400933 366.8727117732624L663.2354213792571 366.8727117732624ZM852.1997246642948 494.58747852487664L838.5329337255982 494.58747852487664L838.5329337255982 471.29815110893475L837.9472141139397 467.47702792811555L837.9472141139397 428.5127280477912Q837.9472141139397 415.06906838972657 830.4165333926173 407.8451931792727Q822.8858526712947 400.5934265587399 808.0197310992025 400.5934265587399L808.0197310992025 400.5934265587399Q797.7835836002196 400.5934265587399 788.5236354540009 404.0240699984535Q779.2915787178611 407.4268220280881 772.8765543996974 413.0608868640405L772.8765543996974 413.0608868640405L766.4336386714547 402.4063682138731Q774.4663647741988 395.5729727445249 785.7344944461036 391.8634152040216Q796.9747327079294 388.15385766351824 809.4143016031512 388.15385766351824L809.4143016031512 388.15385766351824Q829.9144880111958 388.15385766351824 841.0431606327058 398.3063309322642Q852.1997246642948 408.43091279093113 852.1997246642948 429.1263390695286L852.1997246642948 429.1263390695286L852.1997246642948 494.58747852487664ZM802.1904263926972 495.5915692877196L802.1904263926972 495.5915692877196Q790.3365771091339 495.5915692877196 781.6065657544157 491.6867718766635Q772.8765543996974 487.75408305552844 768.246580326588 480.83701335594327Q763.6444976635576 473.89205224627915 763.6444976635576 464.85523538069214L763.6444976635576 464.85523538069214Q763.6444976635576 456.6272694073953 767.5492950746136 449.905439578363Q771.4540924856699 443.1836097493306 780.40723512102 439.05568105764274Q789.332486346291 434.9556437760338 804.3938477889362 434.9556437760338L804.3938477889362 434.9556437760338L840.736355121837 434.9556437760338L840.736355121837 445.58227101612226L804.8122189401206 445.58227101612226Q789.5277262168438 445.58227101612226 783.6147472801017 451.02109598152185Q777.7017683433596 456.4320295368425 777.7017683433596 464.46475563958654L777.7017683433596 464.46475563958654Q777.7017683433596 473.50157250517356 784.7304036832606 478.9125060604942Q791.7590390231617 484.3513310258938 804.3938477889362 484.3513310258938L804.3938477889362 484.3513310258938Q816.4429369430522 484.3513310258938 825.1729482977705 478.8288318302573Q833.9308510625679 473.30633263462073 837.9472141139397 462.84705385500615L837.9472141139397 462.84705385500615L841.1547262730217 472.69272161288336Q837.1383632216496 483.15200039249794 827.1811298234566 489.37178484010883Q817.2517878353424 495.5915692877196 802.1904263926972 495.5915692877196ZM932.7222255622878 494.58747852487664L918.0513438607484 494.58747852487664L871.2774491583118 389.15794842636126L886.143570730404 389.15794842636126L929.0963422520213 486.9452321632382L922.0677069121202 486.9452321632382L965.6619808655541 389.15794842636126L979.7192515453562 389.15794842636126L932.7222255622878 494.58747852487664ZM1014.053577352571 494.58747852487664L999.8010668022162 494.58747852487664L999.8010668022162 389.15794842636126L1014.053577352571 389.15794842636126L1014.053577352571 494.58747852487664ZM1007.0249420126702 365.86862101041936L1007.0249420126702 365.86862101041936Q1002.6180992201923 365.86862101041936 999.6058269316634 362.85634872189036Q996.5935546431344 359.84407643336135 996.5935546431344 355.6324735114365L996.5935546431344 355.6324735114365Q996.5935546431344 351.3929791794327 999.6058269316634 348.4922725312196Q1002.6180992201923 345.5915658830065 1007.0249420126702 345.5915658830065L1007.0249420126702 345.5915658830065Q1011.4317848051476 345.5915658830065 1014.4440570936767 348.38070689090375Q1017.4563293822057 351.19773930887993 1017.4563293822057 355.4093422308048L1017.4563293822057 355.4093422308048Q1017.4563293822057 359.84407643336135 1014.5556227339925 362.85634872189036Q1011.6549160857794 365.86862101041936 1007.0249420126702 365.86862101041936ZM1097.5883505390932 495.5915692877196L1097.5883505390932 495.5915692877196Q1081.9412694847897 495.5915692877196 1069.5853748198049 488.6744995881345Q1057.2294801548203 481.72953847847043 1050.2008448149193 469.59677509411745Q1043.1722094750182 457.4361202996855 1043.1722094750182 441.76114783530306L1043.1722094750182 441.76114783530306Q1043.1722094750182 425.9188269104468 1050.2008448149193 413.8697377563307Q1057.2294801548203 401.8206486022147 1069.5853748198049 394.9872531328665Q1081.9412694847897 388.15385766351824 1097.5883505390932 388.15385766351824L1097.5883505390932 388.15385766351824Q1111.0599016072367 388.15385766351824 1121.881768717878 393.36955134828605Q1132.7315272385983 398.58524503305387 1138.951311686209 409.0445238126685L1138.951311686209 409.0445238126685L1128.3246844461207 416.26839902312236Q1122.8858594807211 408.2356729203783 1114.853133377977 404.4145497395591Q1106.820407275233 400.5934265587399 1097.3931106685404 400.5934265587399L1097.3931106685404 400.5934265587399Q1086.1528724067146 400.5934265587399 1077.1160555411275 405.7254460132708Q1068.0792386755404 410.8574654678017 1062.8635449907727 420.08952220394156Q1057.6199598959258 429.3215789400814 1057.6199598959258 441.76114783530306L1057.6199598959258 441.76114783530306Q1057.6199598959258 454.2286081406037 1062.8635449907727 463.4606648767435Q1068.0792386755404 472.69272161288336 1077.1160555411275 477.82474106741427Q1086.1528724067146 482.9288691118662 1097.3931106685404 482.9288691118662L1097.3931106685404 482.9288691118662Q1106.820407275233 482.9288691118662 1114.853133377977 479.13563734112597Q1122.8858594807211 475.31451416030677 1128.3246844461207 467.47702792811555L1128.3246844461207 467.47702792811555L1138.951311686209 474.7009031385694Q1132.7315272385983 484.9370506375522 1121.881768717878 490.26430996263593Q1111.0599016072367 495.5915692877196 1097.5883505390932 495.5915692877196ZM1209.8512761069567 495.5915692877196L1209.8512761069567 495.5915692877196Q1194.594674793759 495.5915692877196 1182.434019999327 488.6744995881345Q1170.301256614974 481.72953847847043 1163.2726212750729 469.59677509411745Q1156.2439859351718 457.4361202996855 1156.2439859351718 441.76114783530306L1156.2439859351718 441.76114783530306Q1156.2439859351718 425.9188269104468 1163.2726212750729 413.8697377563307Q1170.301256614974 401.8206486022147 1182.35034576909 394.9872531328665Q1194.399434923206 388.15385766351824 1209.8512761069567 388.15385766351824L1209.8512761069567 388.15385766351824Q1225.526248571339 388.15385766351824 1237.6590119556922 394.9872531328665Q1249.819666750124 401.8206486022147 1256.7367364497093 413.8697377563307Q1263.6816975593733 425.9188269104468 1263.6816975593733 441.76114783530306L1263.6816975593733 441.76114783530306Q1263.6816975593733 457.4361202996855 1256.7367364497093 469.59677509411745Q1249.819666750124 481.72953847847043 1237.5753377254553 488.6744995881345Q1225.3031172907074 495.5915692877196 1209.8512761069567 495.5915692877196ZM1209.8512761069567 482.9288691118662L1209.8512761069567 482.9288691118662Q1221.2867542393353 482.9288691118662 1230.1283312343696 477.82474106741427Q1238.969908229404 472.69272161288336 1244.1019276839347 463.3490992364276Q1249.2060557283867 454.03336827005086 1249.2060557283867 441.76114783530306L1249.2060557283867 441.76114783530306Q1249.2060557283867 429.3215789400814 1244.1019276839347 420.08952220394156Q1238.969908229404 410.8574654678017 1230.1283312343696 405.7254460132708Q1221.2867542393353 400.5934265587399 1210.0465159775094 400.5934265587399L1210.0465159775094 400.5934265587399Q1198.8062777156838 400.5934265587399 1189.9647007206495 405.7254460132708Q1181.1231237256152 410.8574654678017 1175.9074300408474 420.08952220394156Q1170.6917363560794 429.3215789400814 1170.6917363560794 441.76114783530306L1170.6917363560794 441.76114783530306Q1170.6917363560794 454.03336827005086 1175.9074300408474 463.3490992364276Q1181.1231237256152 472.69272161288336 1189.9647007206495 477.82474106741427Q1198.8062777156838 482.9288691118662 1209.8512761069567 482.9288691118662ZM1346.6028597241582 388.15385766351824L1346.6028597241582 388.15385766351824Q1359.4607997705646 388.15385766351824 1369.1949018881257 393.06274583741737Q1378.929004005687 397.99952542139545 1384.4515032013235 408.04043304982554Q1389.97400239696 418.0813406782556 1389.97400239696 433.3379419914534L1389.97400239696 433.3379419914534L1389.97400239696 494.58747852487664L1375.7214918466052 494.58747852487664L1375.7214918466052 434.73251249540203Q1375.7214918466052 418.0813406782556 1367.3819602329925 409.54656919409Q1359.0703200294586 401.0117977099245 1344.0089585868138 401.0117977099245L1344.0089585868138 401.0117977099245Q1332.740828914909 401.0117977099245 1324.4291887113752 405.530206142718Q1316.0896570977623 410.0486145755115 1311.5712486649688 418.5833860596771Q1307.0528402321754 427.1181575438426 1307.0528402321754 439.1672466979586L1307.0528402321754 439.1672466979586L1307.0528402321754 494.58747852487664L1292.8003296818204 494.58747852487664L1292.8003296818204 389.15794842636126L1306.4392292104378 389.15794842636126L1306.4392292104378 418.0813406782556L1304.235807814199 412.6425157128559Q1309.2562616284142 401.2070375804773 1320.3012600196873 394.68044762199776Q1331.3462584109602 388.15385766351824 1346.6028597241582 388.15385766351824ZM1429.9423930401274 495.5915692877196L1429.9423930401274 495.5915692877196Q1425.5355502476498 495.5915692877196 1422.411712318805 492.3840571286378Q1419.315765800039 489.176544969556 1419.315765800039 484.5465708964466L1419.315765800039 484.5465708964466Q1419.315765800039 479.7213569527844 1422.411712318805 476.7090846642554Q1425.5355502476498 473.6968123757264 1429.9423930401274 473.6968123757264L1429.9423930401274 473.6968123757264Q1434.377127242684 473.6968123757264 1437.4730737614498 476.7090846642554Q1440.596911690295 479.7213569527844 1440.596911690295 484.5465708964466L1440.596911690295 484.5465708964466Q1440.596911690295 489.176544969556 1437.4730737614498 492.3840571286378Q1434.377127242684 495.5915692877196 1429.9423930401274 495.5915692877196ZM1485.3626248670455 494.58747852487664L1471.1101143166904 494.58747852487664L1471.1101143166904 389.15794842636126L1485.3626248670455 389.15794842636126L1485.3626248670455 494.58747852487664ZM1478.3339895271445 365.86862101041936L1478.3339895271445 365.86862101041936Q1473.9271467346666 365.86862101041936 1470.9148744461377 362.85634872189036Q1467.9026021576087 359.84407643336135 1467.9026021576087 355.6324735114365L1467.9026021576087 355.6324735114365Q1467.9026021576087 351.3929791794327 1470.9148744461377 348.4922725312196Q1473.9271467346666 345.5915658830065 1478.3339895271445 345.5915658830065L1478.3339895271445 345.5915658830065Q1482.768723729701 345.5915658830065 1485.7809960182299 348.38070689090375Q1488.7932683067588 351.19773930887993 1488.7932683067588 355.4093422308048L1488.7932683067588 355.4093422308048Q1488.7932683067588 359.84407643336135 1485.8646702484668 362.85634872189036Q1482.9639636002537 365.86862101041936 1478.3339895271445 365.86862101041936ZM1568.1164385713562 495.5915692877196L1568.1164385713562 495.5915692877196Q1552.8598372581584 495.5915692877196 1540.6991824637264 488.6744995881345Q1528.5385276692944 481.72953847847043 1521.5098923293933 469.59677509411745Q1514.4812569894923 457.4361202996855 1514.4812569894923 441.76114783530306L1514.4812569894923 441.76114783530306Q1514.4812569894923 425.9188269104468 1521.5098923293933 413.8697377563307Q1528.5385276692944 401.8206486022147 1540.5876168234106 394.9872531328665Q1552.6367059775266 388.15385766351824 1568.1164385713562 388.15385766351824L1568.1164385713562 388.15385766351824Q1583.7635196256597 388.15385766351824 1595.9241744200915 394.9872531328665Q1608.0848292145236 401.8206486022147 1615.0018989141086 413.8697377563307Q1621.9189686136938 425.9188269104468 1621.9189686136938 441.76114783530306L1621.9189686136938 441.76114783530306Q1621.9189686136938 457.4361202996855 1615.0018989141086 469.59677509411745Q1608.0848292145236 481.72953847847043 1595.8126087797757 488.6744995881345Q1583.568279755107 495.5915692877196 1568.1164385713562 495.5915692877196ZM1568.1164385713562 482.9288691118662L1568.1164385713562 482.9288691118662Q1579.5519167037348 482.9288691118662 1588.3934936987691 477.82474106741427Q1597.2350706938034 472.69272161288336 1602.3391987382554 463.3490992364276Q1607.4712181927862 454.03336827005086 1607.4712181927862 441.76114783530306L1607.4712181927862 441.76114783530306Q1607.4712181927862 429.3215789400814 1602.3391987382554 420.08952220394156Q1597.2350706938034 410.8574654678017 1588.3934936987691 405.7254460132708Q1579.5519167037348 400.5934265587399 1568.3116784419092 400.5934265587399L1568.3116784419092 400.5934265587399Q1557.071440180083 400.5934265587399 1548.2298631850488 405.7254460132708Q1539.388286190015 410.8574654678017 1534.172592505247 420.08952220394156Q1528.956898820479 429.3215789400814 1528.956898820479 441.76114783530306L1528.956898820479 441.76114783530306Q1528.956898820479 454.03336827005086 1534.172592505247 463.3490992364276Q1539.388286190015 472.69272161288336 1548.2298631850488 477.82474106741427Q1557.071440180083 482.9288691118662 1568.1164385713562 482.9288691118662Z " fill="#080a52" transform="matrix(0.5394844578620973,0,0,0.5394844578620975,0,73.0973781597986)"/></g></svg>